<svg width="360" height="360" viewBox="0 0 360 360" fill="none" xmlns="http://www.w3.org/2000/svg">
<rect width="360" height="360" rx="180" fill="white"/>
<g clip-path="url(#clip0_560_376)">
<path d="M157.85 163.35C156.86 191.21 157.27 219.18 157.86 245.25C158.21 256.97 166.46 263.89 179.93 263.72H181.34C181.49 263.72 181.63 263.72 181.78 263.72C195 263.72 203.07 256.84 203.42 245.24C204.02 219.37 204.43 191.54 203.43 163.35C203.01 150.4 191.38 145.79 180.64 145.78C169.91 145.78 158.29 150.4 157.85 163.34V163.35Z" fill="black"/>
<path d="M115.91 142.09H101.75C99.29 142.08 97.28 144.08 97.28 146.55V262.96C97.28 265.42 99.28 267.43 101.75 267.43H115.91C129.8 267.43 141.1 256.13 141.1 242.24V167.29C141.1 153.4 129.8 142.1 115.91 142.1V142.09Z" fill="black"/>
<path d="M261.4 92H99.47C97 92 95 94 95 96.47V106.78C95 120.67 106.3 131.97 120.19 131.97H141.82C141.91 131.96 142.05 131.96 142.25 131.96C142.37 131.96 142.53 131.96 142.72 131.95H142.78H142.84C143.2 131.97 143.57 131.97 143.94 131.97C144.09 131.97 144.31 131.97 144.56 131.96H145.61C145.8 131.97 146.05 131.97 146.37 131.95H146.43H146.49C146.78 131.96 147.06 131.97 147.35 131.96C147.51 131.96 147.71 131.96 147.97 131.94H148.03H148.09C148.47 131.95 148.76 131.96 149.09 131.96C149.22 131.96 149.36 131.96 149.54 131.95H149.6H149.66C150.02 131.97 150.38 131.97 150.76 131.97C150.93 131.97 151.13 131.97 151.37 131.95H151.43H151.49C151.81 131.96 152.15 131.98 152.48 131.97C152.7 131.97 152.95 131.97 153.25 131.95H153.31H153.38C153.63 131.96 153.9 131.95 154.14 131.96C154.3 131.96 154.48 131.96 154.68 131.95H154.72H154.79C155.16 131.96 155.5 131.97 155.86 131.97C156.03 131.97 156.23 131.97 156.44 131.95H156.5H156.56C156.88 131.96 157.21 131.97 157.53 131.97C157.76 131.97 158.02 131.97 158.33 131.95H158.39H158.45C158.7 131.96 158.96 131.95 159.21 131.96C159.39 131.96 159.62 131.96 159.87 131.94H159.93H160C160.37 131.95 160.63 131.95 160.9 131.96C161.06 131.96 161.25 131.96 161.46 131.95C161.93 131.96 162.29 131.97 162.64 131.97C162.82 131.97 163.02 131.97 163.24 131.95H163.31H163.38C163.7 131.96 164 131.97 164.32 131.97C164.5 131.97 164.7 131.97 164.92 131.95H164.98H165.04C165.37 131.96 165.69 131.97 166 131.97C166.23 131.97 166.51 131.97 166.79 131.95H166.85H166.91C167.16 131.96 167.42 131.97 167.66 131.96C167.84 131.96 168.03 131.96 168.25 131.95H168.31H168.37C168.72 131.97 169.03 131.97 169.35 131.97C169.61 131.97 169.91 131.97 170.22 131.95H170.28H170.34C170.58 131.96 170.82 131.97 171.04 131.96C171.25 131.96 171.5 131.96 171.76 131.94H171.82H171.88C172.26 131.95 172.51 131.96 172.79 131.96C172.97 131.96 173.16 131.96 173.37 131.95H173.43H173.49C173.82 131.97 174.15 131.98 174.45 131.97C174.68 131.97 174.93 131.97 175.21 131.95H175.27H175.33C175.66 131.96 175.94 131.97 176.2 131.97C176.44 131.97 176.67 131.97 176.93 131.95H176.99H177.05C177.38 131.96 177.65 131.97 177.91 131.97C178.13 131.97 178.36 131.97 178.61 131.95H178.67H178.73C179.06 131.96 179.33 131.97 179.6 131.97C179.83 131.97 180.06 131.97 180.31 131.95H180.37H180.43C180.77 131.96 181.03 131.97 181.31 131.97C181.58 131.97 181.86 131.97 182.14 131.95H182.93C183.18 131.96 183.43 131.96 183.7 131.94H183.76H183.82C184.2 131.95 184.44 131.96 184.7 131.96C184.92 131.96 185.17 131.96 185.41 131.94H185.47H185.65C185.91 131.95 186.14 131.96 186.37 131.96C186.58 131.96 186.79 131.96 187.02 131.95H187.08H187.19C187.49 131.97 187.77 131.97 188.04 131.97C188.3 131.97 188.58 131.97 188.86 131.95H188.92H188.98C189.27 131.96 189.55 131.97 189.8 131.97C190.05 131.97 190.29 131.97 190.54 131.95H190.6H190.66C191.01 131.96 191.24 131.98 191.46 131.97C191.67 131.97 191.92 131.97 192.14 131.96H192.2H192.26C192.56 131.98 192.85 131.98 193.11 131.98C193.48 131.98 193.86 131.97 194.26 131.94H194.81C195.1 131.94 195.38 131.94 195.68 131.92H195.74H195.8C196.1 131.93 196.34 131.94 196.56 131.94C196.82 131.94 197.08 131.94 197.36 131.92H197.42H197.48C197.78 131.93 198.02 131.94 198.24 131.94C198.48 131.94 198.73 131.94 198.99 131.93H199.05H199.11C199.41 131.95 199.67 131.94 199.91 131.95C200.18 131.95 200.46 131.95 200.74 131.93H200.8H200.87C201.18 131.94 201.42 131.95 201.64 131.95C201.91 131.95 202.19 131.95 202.47 131.93H202.53H202.59C202.95 131.94 203.15 131.95 203.36 131.95C203.63 131.95 203.92 131.95 204.2 131.93H204.26H204.32C204.65 131.94 204.87 131.96 205.06 131.95C205.33 131.95 205.61 131.95 205.89 131.93H205.95H206.14C206.37 131.93 206.56 131.94 206.74 131.95C207.07 131.95 207.4 131.95 207.74 131.93H207.8H207.86C208.05 131.93 208.22 131.93 208.39 131.93C208.69 131.93 209.01 131.93 209.32 131.91H209.38H209.44C209.76 131.92 209.97 131.94 210.15 131.93C210.44 131.93 210.74 131.93 211.05 131.91H211.11H211.3C211.5 131.91 211.66 131.93 211.82 131.93C212.07 131.93 212.34 131.93 212.6 131.92H212.66H212.72C213.03 131.94 213.28 131.95 213.49 131.94C213.81 131.94 214.12 131.94 214.46 131.92H214.52H214.7C214.93 131.92 215.11 131.94 215.26 131.94C215.56 131.94 215.85 131.94 216.16 131.92H216.22H216.45C216.66 131.92 216.82 131.94 216.95 131.93C217.29 131.93 217.65 131.93 217.99 131.91H218.05H218.11C218.31 131.92 218.5 131.93 218.63 131.92C218.89 131.92 219.17 131.92 219.44 131.91L220.53 131.87V131.94L240.69 131.96C254.58 131.96 265.88 120.66 265.88 106.77V96.47C265.88 94.01 263.88 92 261.41 92H261.4Z" fill="black"/>
<path d="M259.55 142.08H245.39C231.5 142.08 220.2 153.38 220.2 167.27V242.22C220.2 256.11 231.5 267.41 245.39 267.41H259.55C262.01 267.41 264.02 265.41 264.02 262.94V146.55C264.02 144.09 262.02 142.08 259.55 142.08Z" fill="black"/>
</g>
<defs>
<clipPath id="clip0_560_376">
<rect width="170.88" height="175.43" fill="white" transform="translate(95 92)"/>
</clipPath>
</defs>
</svg>
