<svg width="256" height="256" viewBox="0 0 256 256" fill="none" xmlns="http://www.w3.org/2000/svg">
<g clip-path="url(#clip0_701_3970)">
<rect width="256" height="256" fill="black"/>
<path d="M197.21 121.805H192.508C179.648 121.854 167.023 125.25 155.874 131.658C144.725 138.066 135.436 147.266 128.921 158.353V158.353C128.831 158.508 128.702 158.638 128.547 158.729C128.392 158.82 128.216 158.87 128.036 158.873C127.857 158.87 127.681 158.82 127.526 158.729C127.371 158.638 127.242 158.508 127.152 158.353V158.353C120.644 147.287 111.374 138.101 100.25 131.694C89.1252 125.287 76.5274 121.88 63.6901 121.805H16V149.894H63.7109C76.5492 149.971 89.1477 153.38 100.272 159.788C111.397 166.197 120.666 175.385 127.173 186.453V186.453C127.263 186.608 127.392 186.738 127.546 186.829C127.701 186.921 127.877 186.97 128.057 186.973C128.237 186.97 128.413 186.921 128.568 186.829C128.723 186.738 128.852 186.608 128.942 186.453C135.456 175.364 144.744 166.162 155.893 159.752C167.042 153.342 179.668 149.945 192.528 149.894H240V121.805H197.21Z" fill="white"/>
<path d="M127.701 114.231C154.827 114.231 176.817 92.2411 176.817 65.1154C176.817 37.9897 154.827 16 127.701 16C100.576 16 78.5859 37.9897 78.5859 65.1154C78.5859 92.2411 100.576 114.231 127.701 114.231Z" fill="white"/>
<path d="M194.63 177.932H192.549C179.691 177.979 167.066 181.373 155.917 187.779C144.768 194.185 135.478 203.384 128.962 214.469C128.874 214.627 128.746 214.759 128.591 214.852C128.435 214.945 128.259 214.996 128.078 215C127.897 214.996 127.721 214.945 127.566 214.852C127.41 214.759 127.282 214.627 127.194 214.469V214.469C120.685 203.405 111.415 194.22 100.29 187.815C89.1657 181.41 76.5682 178.005 63.7317 177.932H16V206.021H63.7109C76.5492 206.097 89.1477 209.507 100.272 215.915C111.397 222.324 120.666 231.512 127.173 242.58V242.58C127.263 242.735 127.392 242.865 127.546 242.956C127.701 243.047 127.877 243.097 128.057 243.1C128.237 243.097 128.413 243.047 128.568 242.956C128.723 242.865 128.852 242.735 128.942 242.58C135.453 231.489 144.741 222.285 155.891 215.875C167.04 209.465 179.667 206.069 192.528 206.021H240V177.932H194.63V177.932Z" fill="white"/>
</g>
<defs>
<clipPath id="clip0_701_3970">
<rect width="256" height="256" fill="white"/>
</clipPath>
</defs>
</svg>
