<svg width="839" height="192" viewBox="0 0 839 192" fill="none" xmlns="http://www.w3.org/2000/svg">
<g clip-path="url(#clip0_732_13538)">
<path d="M482.543 107.825C477.816 91.6988 467.529 79.7432 451.124 72.7922C436.11 66.3973 420.54 65.8412 404.692 69.7338C391.346 73.0702 380.224 80.2992 372.439 91.6988C365.488 101.986 362.708 113.386 362.708 123.951C362.708 131.736 363.542 138.131 365.21 144.248C369.659 158.984 378.556 170.384 392.458 177.613C400.521 181.784 409.14 184.008 418.038 184.564C427.213 185.12 436.388 184.564 445.285 181.505C461.134 176.223 472.811 166.491 479.762 151.199L457.519 142.58C457.241 143.414 456.685 144.526 456.129 145.36C451.958 153.145 445.563 158.15 437.222 160.653C428.047 163.433 418.594 163.433 409.418 160.375C403.023 158.428 398.019 155.092 394.404 150.365L460.021 118.113L482.543 107.825ZM389.678 110.049C393.292 100.04 400.799 93.6451 411.087 91.1428C420.262 88.9184 429.159 88.9184 438.056 91.6988C443.617 93.3671 448.066 96.1475 451.402 99.4839L386.897 131.18C386.063 124.229 386.897 117.278 389.678 110.049Z" fill="#000B42"/>
<path d="M266.784 163.155C267.619 164.545 268.175 165.935 268.731 167.326C270.955 166.213 273.179 165.101 275.404 163.989C280.964 161.209 286.803 159.818 293.198 159.818C315.163 160.097 337.406 159.818 359.371 159.818C359.928 159.818 360.484 159.818 361.04 159.818C361.04 167.604 361.04 175.389 361.04 183.174C322.948 183.174 284.857 183.174 246.488 183.174C246.488 182.896 246.488 182.34 246.488 182.062C246.488 175.389 246.488 168.438 246.488 161.765C246.488 161.209 246.766 160.375 247.044 160.097C266.228 134.239 285.413 108.103 304.598 82.246C310.437 74.4609 316.275 66.3978 322.114 58.6127C325.173 54.4421 329.343 51.6617 333.792 49.1593C336.016 48.0472 338.24 46.657 340.743 45.5448C340.187 44.1546 339.353 42.7644 338.797 41.3742C336.85 42.2083 335.182 43.3205 333.236 44.1546C329.065 46.1009 324.617 48.0472 319.612 48.6032C319.056 48.6032 318.222 48.6032 317.666 48.6032C295.144 48.6032 272.345 48.6032 249.824 48.6032C249.546 48.6032 248.99 48.6032 248.712 48.6032C248.712 40.8181 248.712 33.0331 248.712 25.248C286.247 25.248 323.504 25.248 361.04 25.248C361.04 25.804 361.04 26.0821 361.04 26.6382C361.04 33.3111 361.04 40.2621 361.04 46.935C361.04 47.7691 360.762 48.6032 360.206 49.4374C352.42 60.0028 344.635 70.5683 336.572 81.1338C320.168 103.377 303.486 125.342 287.081 147.863C282.355 154.258 275.96 158.428 269.009 162.043C268.731 162.321 267.897 162.877 266.784 163.155Z" fill="#000B42"/>
<path d="M517.298 183.451C509.234 183.451 501.449 183.451 493.664 183.451C493.664 145.916 493.664 108.381 493.664 70.5676C501.449 70.5676 509.234 70.5676 517.02 70.5676C518.132 78.9087 514.517 85.8597 511.181 93.0887C512.571 93.6448 513.961 94.2009 515.629 95.035C516.185 93.0887 517.02 91.1425 517.576 89.1962C518.132 87.806 518.688 86.1378 519.244 84.7476C521.746 78.3527 527.029 74.4601 532.59 71.1236C537.038 68.6213 542.043 67.5091 547.326 67.2311C551.496 66.9531 555.945 66.675 560.116 66.9531C572.627 67.5091 583.471 71.9578 591.812 81.6891C597.373 88.3621 599.875 96.4252 599.875 105.044C599.875 130.624 599.875 156.204 599.875 181.783C599.875 182.061 599.875 182.617 599.875 182.895C592.09 182.895 584.027 182.895 576.242 182.895C576.242 182.339 576.242 181.783 576.242 181.505C576.242 161.208 576.242 140.633 576.242 120.337C576.242 113.664 575.408 107.269 572.627 101.43C568.735 93.3668 562.34 89.1962 553.443 88.6401C546.214 88.084 539.263 89.4742 532.59 93.0887C523.971 97.8154 519.522 105.6 518.132 115.054C517.854 117.278 517.576 119.78 517.576 122.005C517.576 141.746 517.576 161.764 517.576 181.505C517.298 182.339 517.298 182.895 517.298 183.451Z" fill="#000B42"/>
<path d="M838.155 105.322C838.155 96.7024 835.652 88.6392 830.092 81.9663C821.75 72.2349 810.907 67.7863 798.395 67.2302C794.225 66.9522 789.776 67.2302 785.605 67.5082C780.601 67.7863 775.596 68.8984 770.869 71.4008C765.03 74.7373 760.026 78.6298 757.523 85.0247C756.967 86.4149 756.411 88.0831 755.855 89.4733C755.299 91.4196 754.465 93.3659 753.909 95.3121C752.241 94.7561 750.851 94.2 749.46 93.3659C752.519 86.971 755.577 80.8541 755.577 73.6251C755.577 54.1624 755.577 40.5385 755.577 21.0757C755.577 20.5196 755.577 20.2416 755.577 19.6855C747.514 19.6855 739.729 19.6855 731.944 19.6855C731.944 71.9569 731.944 26.0804 731.944 70.5667C731.944 72.5129 731.944 74.4592 731.944 76.6835C731.944 112.273 731.944 147.862 731.944 183.451C739.729 183.451 747.514 183.451 755.577 183.451C755.577 182.894 755.577 182.338 755.577 181.782C755.577 162.042 755.577 142.023 755.577 122.282C755.577 120.058 755.855 117.555 756.133 115.331C757.523 105.878 762.25 98.0925 770.591 93.3659C776.986 89.7514 783.937 88.3612 791.444 88.9173C800.341 89.4733 806.736 93.6439 810.629 101.707C813.409 107.824 814.243 114.219 814.243 120.614C814.243 140.911 814.243 161.485 814.243 181.782C814.243 182.338 814.243 182.894 814.243 183.173C822.307 183.173 830.092 183.173 837.877 183.173C837.877 182.616 837.877 182.338 837.877 182.06C838.155 156.481 838.155 130.901 838.155 105.322Z" fill="#000B42"/>
<path d="M628.513 50.5489C624.343 50.2708 620.728 48.3246 617.948 45.2661C615.167 42.2077 613.777 38.3152 614.333 34.1446C614.611 29.974 616.279 26.3595 619.616 23.5791C622.674 20.7987 626.289 19.4085 630.737 19.9646C634.908 20.2426 638.523 22.1889 641.581 25.2473C644.639 28.3058 645.752 31.9203 645.473 36.3689C645.195 40.5395 643.249 44.154 640.191 47.2124C636.576 49.4367 632.684 50.8269 628.513 50.5489Z" fill="#000B42"/>
<path d="M641.581 65.8398H617.67V183.45H641.581V65.8398Z" fill="#000B42"/>
<path d="M715.54 87.8063V65.0071L701.638 64.729C699.135 64.729 696.633 64.729 694.131 65.0071C691.072 65.2851 688.014 66.3973 684.955 68.0655C683.565 68.8996 682.175 69.7337 681.063 70.5679C679.395 71.68 677.726 72.7922 676.058 74.1824C675.224 72.7922 674.39 71.402 673.556 70.0118C674.39 69.7337 674.946 69.1777 675.78 68.8996C682.175 65.5632 686.346 58.6122 686.346 51.3832C686.346 41.3738 686.346 31.6424 686.346 21.633C686.346 21.0769 686.346 20.5208 686.346 19.9648H662.434C662.434 20.5208 662.434 21.0769 662.434 21.633C662.434 38.8714 662.434 56.1098 662.434 73.6263C662.434 74.4604 662.434 75.2945 662.434 76.1286C662.434 102.542 662.434 129.234 662.434 155.647C662.434 156.76 662.434 157.872 662.434 158.984C662.99 168.715 667.717 175.944 676.892 179.837C682.453 182.339 688.57 183.173 694.687 183.451C700.804 183.729 707.199 183.451 713.315 183.451C713.593 183.451 714.149 183.451 714.428 183.451V161.208C713.315 161.208 712.203 161.208 711.091 161.208C705.808 161.208 700.526 161.208 695.521 160.93C689.96 160.652 687.18 157.872 686.624 152.311C686.624 151.199 686.346 150.087 686.346 148.696C686.346 128.4 686.346 108.103 686.346 87.8063H696.355H715.54Z" fill="#000B42"/>
<path d="M191.133 90.4283H124.05L186.164 65.2722L181.816 54.7128L119.391 80.1795L166.908 32.6624L159.144 24.5876L111.938 71.7941L137.715 10.3015L127.156 5.9535L101.068 68.0673V0.673828H89.8873V67.4462L64.7312 5.64293L54.1718 9.9909L79.6385 72.4153L32.1214 24.5876L24.0466 32.6624L71.2531 79.8689L9.76045 54.0917L5.41249 64.3405L67.5263 90.4283H0.132812V101.609H66.9052L5.10192 127.076L9.44989 137.635L71.8743 111.858L24.0466 159.686L32.1214 167.45L79.3279 120.243L53.5507 182.047L63.7995 186.395L89.8873 124.281V191.674H101.068V124.591L126.534 186.705L137.094 182.357L111.317 119.933L159.144 167.45L166.908 159.686L119.702 112.479L181.505 138.256L185.853 127.697L123.739 101.609H191.133V90.4283Z" fill="#000B42"/>
</g>
<defs>
<clipPath id="clip0_732_13538">
<rect width="839" height="192" fill="white"/>
</clipPath>
</defs>
</svg>
